<svg width="564" height="129" viewBox="0 0 564 129" fill="none" xmlns="http://www.w3.org/2000/svg">
<path d="M537.64 59C532.833 59 528.621 58.172 525.003 56.5158C521.385 54.8597 518.361 52.6342 515.932 49.8395C513.554 46.993 511.771 43.836 510.582 40.3684C509.394 36.8491 508.799 33.2522 508.799 29.5776C508.799 25.9031 509.394 22.3062 510.582 18.7869C511.823 15.2676 513.632 12.1105 516.01 9.31579C518.439 6.4693 521.488 4.21799 525.158 2.56185C528.828 0.853949 533.118 0 538.028 0C541.853 0 545.135 0.491668 547.874 1.475C550.665 2.40658 552.991 3.64869 554.852 5.20132C556.712 6.7022 558.185 8.30658 559.271 10.0145C560.408 11.7224 561.261 13.3526 561.829 14.9053C562.449 16.4061 562.837 17.6483 562.992 18.6316C563.199 19.5632 563.302 20.029 563.302 20.029H551.44C551.44 20.029 551.285 19.5632 550.975 18.6316C550.665 17.7 550.045 16.6132 549.114 15.3711C548.184 14.0772 546.814 12.9645 545.005 12.0329C543.248 11.0496 540.922 10.5579 538.028 10.5579C534.255 10.5579 531.102 11.4895 528.569 13.3526C526.088 15.164 524.202 17.5189 522.91 20.4171C521.669 23.2636 521.049 26.2395 521.049 29.3448C521.049 32.5535 521.695 35.6329 522.987 38.5829C524.279 41.4812 526.166 43.8619 528.647 45.725C531.179 47.5364 534.332 48.4421 538.105 48.4421C542.24 48.4421 545.496 47.3812 547.874 45.2592C550.303 43.1373 551.75 40.2649 552.216 36.6421H537.33V27.2487H564V31.6737C564 37.6772 562.837 42.7233 560.511 46.8119C558.237 50.8487 555.11 53.9022 551.13 55.9724C547.202 57.9908 542.705 59 537.64 59Z" fill="white"/>
<path d="M452.899 58.2238V0.776367H463.831L488.563 37.4185V0.776367H500.425V58.2238H489.338L464.761 22.5908V58.2238H452.899Z" fill="white"/>
<path d="M430.414 58.2238V0.776367H442.353V58.2238H430.414Z" fill="white"/>
<path d="M388.305 58.2238L368.768 0.776367H381.328L396.291 46.5014L411.176 0.776367H423.736L404.199 58.2238H388.305Z" fill="white"/>
<path d="M350.159 58.2238V0.776367H362.098V58.2238H350.159Z" fill="white"/>
<path d="M300.34 58.2238V0.776367H312.279V47.8211H340.345V58.2238H300.34Z" fill="white"/>
<path d="M268.564 59C265.256 59 262.414 58.586 260.036 57.7579C257.71 56.8781 255.772 55.7654 254.221 54.4198C252.671 53.0224 251.43 51.5733 250.5 50.0724C249.57 48.5715 248.872 47.1483 248.407 45.8027C247.942 44.4053 247.631 43.2926 247.476 42.4645C247.373 41.5847 247.321 41.1448 247.321 41.1448H255.074C255.074 41.1448 255.152 41.507 255.307 42.2316C255.462 42.9562 255.772 43.8619 256.237 44.9487C256.754 46.0355 257.503 47.1483 258.485 48.2869C259.467 49.3737 260.785 50.2794 262.439 51.004C264.093 51.7285 266.187 52.0908 268.719 52.0908C272.544 52.0908 275.568 51.1851 277.79 49.3737C280.013 47.5105 281.124 45.104 281.124 42.154C281.124 39.618 280.271 37.6513 278.565 36.254C276.911 34.8566 274.534 33.7698 271.433 32.9934L263.835 31.1303C261.147 30.4575 258.641 29.5259 256.315 28.3355C254.04 27.0934 252.206 25.489 250.81 23.5224C249.466 21.504 248.794 18.9939 248.794 15.9921C248.794 12.6281 249.621 9.75571 251.275 7.37501C252.929 4.9943 255.178 3.1829 258.02 1.94079C260.863 0.646931 264.093 0 267.711 0C271.226 0 274.146 0.543423 276.472 1.63027C278.798 2.71711 280.659 4.06272 282.054 5.66711C283.45 7.21974 284.483 8.79825 285.155 10.4026C285.827 11.9553 286.267 13.275 286.473 14.3619C286.68 15.4487 286.784 15.9921 286.784 15.9921H279.341C279.341 15.9921 279.237 15.5263 279.031 14.5947C278.824 13.6632 278.333 12.6022 277.558 11.4118C276.782 10.1697 275.594 9.0829 273.991 8.15132C272.389 7.21974 270.218 6.75395 267.479 6.75395C263.757 6.75395 260.941 7.63378 259.028 9.39343C257.167 11.1531 256.237 13.1715 256.237 15.4487C256.237 17.5189 256.987 19.2009 258.485 20.4947C259.984 21.7369 262.052 22.6943 264.688 23.3671L272.906 25.3855C275.852 26.1101 278.514 27.1711 280.891 28.5684C283.269 29.914 285.155 31.6737 286.551 33.8474C287.946 35.9693 288.644 38.5829 288.644 41.6882C288.644 44.7934 287.869 47.6658 286.318 50.3053C284.819 52.9448 282.571 55.0667 279.573 56.6711C276.627 58.2237 272.958 59 268.564 59Z" fill="white"/>
<path d="M215.022 59.0001C210.525 59.0001 206.649 58.1461 203.393 56.4382C200.136 54.6786 197.604 52.2202 195.795 49.0632C194.037 45.8545 193.159 42.0764 193.159 37.729V0.776367H200.757V37.729C200.757 41.7141 201.919 45.0523 204.245 47.7435C206.623 50.4347 210.215 51.7803 215.022 51.7803C219.88 51.7803 223.473 50.4347 225.798 47.7435C228.176 45.0523 229.365 41.7141 229.365 37.729V0.776367H236.963V37.729C236.963 42.0764 236.058 45.8545 234.249 49.0632C232.492 52.2202 229.985 54.6786 226.729 56.4382C223.473 58.1461 219.57 59.0001 215.022 59.0001Z" fill="white"/>
<path d="M133.359 58.2238L153.594 0.776367H163.13L183.443 58.2238H175.38L170.573 44.483H146.229L141.422 58.2238H133.359ZM148.555 37.6514H168.247L158.401 9.47111L148.555 37.6514Z" fill="white"/>
<path d="M81.1055 58.2238V0.776367H88.7033V25.6961H116.071V0.776367H123.669V58.2238H116.071V32.5277H88.7033V58.2238H81.1055Z" fill="white"/>
<path d="M22.4868 58.2238V0.776367H33.4184L58.1501 37.4185V0.776367H70.0121V58.2238H58.9254L34.3487 22.5908V58.2238H22.4868Z" fill="white"/>
<path d="M0 58.2238V0.776367H11.9395V58.2238H0Z" fill="white"/>
<path d="M513.882 120.33C510.162 120.3 507.252 117.09 507.252 112.86C507.252 108.69 510.102 104.85 515.262 104.82C516.912 104.82 518.292 105.33 519.342 105.99V100.29C519.342 98.1898 518.952 97.8898 518.142 97.5298V97.1998L521.442 95.7598L521.682 95.9698V116.19C521.682 118.65 521.952 119.34 522.882 119.61V120H520.242C519.672 120 519.342 119.67 519.342 119.1V117.39C517.872 118.92 516.012 120.36 513.882 120.33ZM509.502 111.06C509.502 114.57 511.152 118.86 515.232 118.86C516.792 118.86 518.172 118.05 519.342 116.85V109.5C519.072 107.55 516.852 105.39 514.332 105.39C511.152 105.39 509.502 107.88 509.502 111.06Z" fill="white"/>
<path d="M493.894 120V119.61C494.794 119.34 495.094 118.65 495.094 116.19V100.29C495.094 98.1898 494.704 97.8898 493.894 97.5298V97.1998L497.164 95.7598L497.434 95.9698V116.19C497.434 118.65 497.704 119.34 498.634 119.61V120H493.894Z" fill="white"/>
<path d="M480.677 120V119.61C481.607 119.34 481.877 118.65 481.877 116.19V109.29C481.877 107.19 481.517 106.89 480.677 106.53V106.2L483.977 104.76L484.217 104.97V116.19C484.217 118.65 484.517 119.34 485.417 119.61V120H480.677ZM481.217 101.28C481.217 100.32 481.937 99.5996 482.867 99.5996C483.827 99.5996 484.517 100.32 484.517 101.28C484.517 102.18 483.797 102.93 482.867 102.93C481.937 102.93 481.217 102.18 481.217 101.28Z" fill="white"/>
<path d="M462.966 120.3C459.816 120.3 458.376 118.29 458.376 114.84V109.29C458.376 107.19 457.986 106.89 457.176 106.53V106.2L460.446 104.76L460.716 104.97V114.3C460.716 117.72 461.676 119.25 464.076 119.25C465.846 119.25 467.466 118.14 468.816 116.7V109.29C468.816 107.19 468.426 106.89 467.616 106.53V106.2L470.886 104.76L471.156 104.97V116.19C471.156 118.65 471.426 119.34 472.356 119.61V120H469.806C469.146 120 468.816 119.67 468.816 118.8V117.27C467.286 118.86 465.216 120.3 462.966 120.3Z" fill="white"/>
<path d="M433.288 120V119.61C434.188 119.34 434.488 118.65 434.488 116.19V102.81C434.488 100.35 434.188 99.66 433.288 99.39V99H440.308C444.928 99 446.818 100.53 446.818 102.96C446.818 105 445.498 106.86 442.078 107.49C446.968 107.73 449.128 110.16 449.158 113.1C449.218 116.46 446.698 120 439.408 120H433.288ZM436.948 116.94C436.948 119.1 437.218 119.55 438.508 119.55H439.678C444.568 119.55 446.428 117.18 446.428 113.85C446.428 110.4 444.508 107.88 440.008 107.88H436.948V116.94ZM436.948 107.43H439.738C442.708 107.43 444.088 105.69 444.088 103.5C444.088 101.01 442.318 99.45 439.228 99.45H436.948V107.43Z" fill="white"/>
<path d="M403.892 109.05C403.892 108.15 404.032 107.43 404.312 106.89C404.612 106.33 405.012 105.93 405.512 105.69C406.032 105.45 406.602 105.33 407.222 105.33C407.842 105.33 408.402 105.45 408.902 105.69C409.402 105.93 409.802 106.33 410.102 106.89C410.402 107.43 410.552 108.15 410.552 109.05C410.552 109.93 410.402 110.65 410.102 111.21C409.802 111.75 409.402 112.15 408.902 112.41C408.402 112.65 407.842 112.77 407.222 112.77C406.602 112.77 406.032 112.65 405.512 112.41C405.012 112.15 404.612 111.75 404.312 111.21C404.032 110.65 403.892 109.93 403.892 109.05Z" fill="white"/>
<path d="M374.762 120.3C371.462 120.3 367.652 117.9 367.652 112.95C367.652 108.06 371.342 104.79 375.542 104.79C379.322 104.79 381.512 107.25 381.602 110.1H369.872C369.812 110.55 369.782 111 369.782 111.48C369.782 115.59 372.332 118.41 376.232 118.41C378.542 118.41 380.192 117.36 381.572 115.8L381.842 116.07C380.312 118.17 377.972 120.3 374.762 120.3ZM369.962 109.71H379.202C378.902 107.7 377.282 105.33 374.552 105.33C372.002 105.3 370.442 107.19 369.962 109.71Z" fill="white"/>
<path d="M355.631 120.301C353.741 120.301 352.601 119.131 352.601 116.011V105.421H350.681V105.001L354.521 101.311H354.941V105.001H359.501L359.351 105.421H354.941V116.011C354.941 118.051 355.781 118.831 357.071 118.831C357.911 118.831 358.961 118.441 359.951 117.271L360.221 117.541C358.931 119.011 357.401 120.301 355.631 120.301Z" fill="white"/>
<path d="M340.324 120C339.724 120 339.424 119.67 339.424 119.1V113.7C338.494 117.39 335.974 120.3 333.004 120.3C330.784 120.3 328.804 118.95 328.804 116.37C328.804 113.25 331.954 112.08 335.524 111.09L339.424 110.04C339.274 107.13 337.774 105.78 335.224 105.78C333.424 105.78 331.684 106.62 330.184 108.45L329.914 108.21C331.624 106.08 333.814 104.79 336.424 104.79C340.054 104.79 341.734 106.8 341.734 110.19V116.19C341.734 118.65 342.004 119.34 342.934 119.61V120H340.324ZM331.054 115.53C331.054 117.48 332.404 118.53 334.114 118.53C337.324 118.53 339.394 114.48 339.424 111.33V110.49V110.43L335.644 111.45C333.424 112.08 331.024 113.07 331.054 115.53Z" fill="white"/>
<path d="M308.933 108.51C308.003 106.26 307.463 105.66 306.833 105.39V105H311.153V105.39C310.253 105.66 310.493 106.26 311.453 108.51L315.383 117.81L318.923 108.57C319.673 106.59 319.553 105.6 318.503 105.39V105H321.592V105.39C320.752 105.66 320.273 106.26 319.403 108.57L314.993 120H313.733L308.933 108.51Z" fill="white"/>
<path d="M291.577 120.3C287.767 120.3 283.717 117.93 283.717 112.71C283.717 108.03 287.467 104.79 291.577 104.79C295.297 104.79 299.407 107.07 299.407 112.41C299.407 117.54 295.117 120.3 291.577 120.3ZM286.027 111C286.027 114.81 288.487 119.67 292.477 119.67C295.687 119.67 297.127 117.09 297.127 114.18C297.127 110.31 294.397 105.15 290.467 105.36C287.407 105.48 286.027 108 286.027 111Z" fill="white"/>
<path d="M259.778 120V119.61C260.708 119.34 260.978 118.65 260.978 116.19V109.29C260.978 107.19 260.618 106.89 259.778 106.53V106.2L263.078 104.76L263.318 104.97V107.55C265.058 106.14 267.368 104.79 269.678 104.79C272.618 104.79 274.418 106.5 274.418 110.01V116.19C274.418 118.65 274.688 119.34 275.618 119.61V120H270.878V119.61C271.808 119.34 272.078 118.65 272.078 116.19V110.61C272.078 107.49 270.758 105.78 268.118 105.78C266.468 105.78 264.848 106.77 263.318 108.03V116.19C263.318 118.65 263.618 119.34 264.518 119.61V120H259.778Z" fill="white"/>
<path d="M244.596 120.3C241.296 120.3 237.486 117.9 237.486 112.95C237.486 108.06 241.176 104.79 245.376 104.79C249.156 104.79 251.346 107.25 251.436 110.1H239.706C239.646 110.55 239.616 111 239.616 111.48C239.616 115.59 242.166 118.41 246.066 118.41C248.376 118.41 250.026 117.36 251.406 115.8L251.676 116.07C250.146 118.17 247.806 120.3 244.596 120.3ZM239.796 109.71H249.036C248.736 107.7 247.116 105.33 244.386 105.33C241.836 105.3 240.276 107.19 239.796 109.71Z" fill="white"/>
<path d="M228.538 120.21C226.228 120.21 225.748 118.53 224.428 115.41C222.688 111.27 222.448 109.17 218.848 109.17H216.928V116.19C216.928 118.65 217.198 119.34 218.128 119.61V120H213.268V119.61C214.198 119.34 214.468 118.65 214.468 116.19V102.81C214.468 100.35 214.198 99.66 213.268 99.39V99H219.178C225.268 99 227.068 101.01 227.068 103.68C227.068 106.5 225.028 108.63 221.128 109.08C224.818 109.56 225.388 111.39 226.828 115.08C228.268 118.68 228.868 119.67 229.888 119.67C230.068 119.67 230.218 119.67 230.368 119.64V120C229.918 120.15 229.138 120.21 228.538 120.21ZM216.928 108.72H219.448C222.898 108.72 224.518 106.92 224.518 104.37C224.518 101.7 222.778 99.45 218.338 99.45C217.888 99.45 217.408 99.48 216.928 99.51V108.72Z" fill="white"/>
<path d="M183.873 109.05C183.873 108.15 184.013 107.43 184.293 106.89C184.593 106.33 184.993 105.93 185.493 105.69C186.013 105.45 186.583 105.33 187.203 105.33C187.823 105.33 188.383 105.45 188.883 105.69C189.383 105.93 189.783 106.33 190.083 106.89C190.383 107.43 190.533 108.15 190.533 109.05C190.533 109.93 190.383 110.65 190.083 111.21C189.783 111.75 189.383 112.15 188.883 112.41C188.383 112.65 187.823 112.77 187.203 112.77C186.583 112.77 186.013 112.65 185.493 112.41C184.993 112.15 184.593 111.75 184.293 111.21C184.013 110.65 183.873 109.93 183.873 109.05Z" fill="white"/>
<path d="M146.106 120V119.61C147.036 119.34 147.306 118.65 147.306 116.19V109.29C147.306 107.19 146.946 106.89 146.106 106.53V106.2L149.406 104.76L149.646 104.97V107.55C151.386 106.14 153.696 104.79 156.006 104.79C158.946 104.79 160.746 106.5 160.746 110.01V116.19C160.746 118.65 161.016 119.34 161.946 119.61V120H157.206V119.61C158.136 119.34 158.406 118.65 158.406 116.19V110.61C158.406 107.49 157.086 105.78 154.446 105.78C152.796 105.78 151.176 106.77 149.646 108.03V116.19C149.646 118.65 149.946 119.34 150.846 119.61V120H146.106Z" fill="white"/>
<path d="M128.485 128.31C126.205 128.31 123.595 127.32 123.595 124.62C123.595 122.73 125.125 121.2 127.555 119.73C126.205 119.4 125.365 118.77 125.365 117.48C125.365 116.37 126.355 115.62 127.555 114.84C126.055 114.06 124.915 112.68 124.915 110.46C124.915 107.31 127.765 104.79 130.855 104.79C131.575 104.79 132.355 104.88 133.045 105.09C133.345 104.7 133.705 104.31 134.095 104.01C134.995 103.2 136.075 102.66 137.515 102.66C138.445 102.66 139.075 102.93 139.075 103.38C139.075 103.89 138.445 104.91 137.365 104.91C136.615 104.91 135.745 104.64 134.395 104.22C134.065 104.46 133.735 104.82 133.435 105.24C135.265 105.9 136.765 107.37 136.765 109.95C136.765 113.4 133.315 115.59 130.855 115.59C129.925 115.59 128.875 115.41 127.945 115.02C127.285 115.47 126.865 115.77 126.865 116.34C126.895 117.15 127.885 117.63 130.165 117.75L133.945 117.99C136.975 118.17 138.745 118.59 138.745 120.93C138.745 124.35 133.435 128.31 128.485 128.31ZM125.605 123.51C125.605 125.67 127.405 126.96 130.195 126.96C134.035 126.96 137.575 124.56 137.575 122.19C137.575 120.78 136.405 120.36 133.915 120.21L129.715 120C129.115 119.97 128.545 119.91 128.005 119.82C126.265 120.99 125.605 122.22 125.605 123.51ZM127.105 109.14C127.105 111.75 128.665 115.11 131.425 115.11C133.645 115.11 134.605 113.34 134.605 111.3C134.605 108.6 132.865 105.09 130.135 105.24C128.005 105.33 127.105 107.04 127.105 109.14Z" fill="white"/>
<path d="M111.067 120V119.61C111.997 119.34 112.267 118.65 112.267 116.19V109.29C112.267 107.19 111.907 106.89 111.067 106.53V106.2L114.367 104.76L114.607 104.97V116.19C114.607 118.65 114.907 119.34 115.807 119.61V120H111.067ZM111.607 101.28C111.607 100.32 112.327 99.5996 113.257 99.5996C114.217 99.5996 114.907 100.32 114.907 101.28C114.907 102.18 114.187 102.93 113.257 102.93C112.327 102.93 111.607 102.18 111.607 101.28Z" fill="white"/>
<path d="M97.229 120.27C94.829 120.27 92.759 119.55 91.769 118.89L91.499 115.26L91.769 115.2C93.029 118.05 95.159 119.76 97.889 119.79C99.749 119.79 101.129 118.68 101.129 117C101.129 114.84 99.029 114.15 96.719 113.4C93.869 112.5 91.829 111.72 91.829 108.99C91.829 106.62 93.809 104.79 97.289 104.79C99.239 104.79 101.009 105.21 101.939 105.6L102.059 108.66L101.759 108.72C100.799 106.56 98.879 105.18 96.749 105.18C94.709 105.18 93.389 106.17 93.389 107.7C93.389 109.59 95.309 110.37 97.679 111.15C99.959 111.9 102.719 112.59 102.719 115.59C102.719 118.11 100.829 120.24 97.229 120.27Z" fill="white"/>
<path d="M76.2272 120.3C72.9272 120.3 69.1172 117.9 69.1172 112.95C69.1172 108.06 72.8072 104.79 77.0072 104.79C80.7872 104.79 82.9772 107.25 83.0672 110.1H71.3372C71.2772 110.55 71.2472 111 71.2472 111.48C71.2472 115.59 73.7972 118.41 77.6972 118.41C80.0072 118.41 81.6572 117.36 83.0372 115.8L83.3072 116.07C81.7772 118.17 79.4372 120.3 76.2272 120.3ZM71.4272 109.71H80.6672C80.3672 107.7 78.7472 105.33 76.0172 105.33C73.4672 105.3 71.9072 107.19 71.4272 109.71Z" fill="white"/>
<path d="M41.5298 120V119.61C42.4298 119.34 42.7298 118.65 42.7298 116.19V102.81C42.7298 100.35 42.4298 99.66 41.5298 99.39V99H48.6998C56.9498 99 60.1898 104.25 60.2198 109.11C60.2498 115.44 55.9898 120 49.3898 120H41.5298ZM45.1898 117.36C45.1898 118.77 45.4898 119.55 47.1398 119.55H49.3298C54.5798 119.55 57.4898 116.58 57.4898 110.31C57.4898 104.31 53.9198 99.45 47.2298 99.45H45.1898V117.36Z" fill="white"/>
</svg>
